<?xml version="1.0" encoding="utf-8"?>
<svg xmlns="http://www.w3.org/2000/svg" xmlns:xlink="http://www.w3.org/1999/xlink" width="528" height="336" viewBox="0 0 2112 1344">
<defs>
  <clipPath id="clip770">
    <rect x="0" y="0" width="2112" height="1344"/>
  </clipPath>
</defs>
<path clip-path="url(#clip770)" d="M0 1344 L2112 1344 L2112 0 L0 0  Z" fill="#ffffff" fill-rule="evenodd" fill-opacity="1"/>
<defs>
  <clipPath id="clip771">
    <rect x="422" y="0" width="1479" height="1344"/>
  </clipPath>
</defs>
<path clip-path="url(#clip770)" d="M443.404 1094.73 L1986.02 1094.73 L1986.02 125.984 L443.404 125.984  Z" fill="#ffffff" fill-rule="evenodd" fill-opacity="1"/>
<defs>
  <clipPath id="clip772">
    <rect x="443" y="125" width="1544" height="970"/>
  </clipPath>
</defs>
<polyline clip-path="url(#clip772)" style="stroke:#000000; stroke-linecap:round; stroke-linejoin:round; stroke-width:2; stroke-opacity:0.1; fill:none" points="487.062,1094.73 487.062,125.984 "/>
<polyline clip-path="url(#clip772)" style="stroke:#000000; stroke-linecap:round; stroke-linejoin:round; stroke-width:2; stroke-opacity:0.1; fill:none" points="850.886,1094.73 850.886,125.984 "/>
<polyline clip-path="url(#clip772)" style="stroke:#000000; stroke-linecap:round; stroke-linejoin:round; stroke-width:2; stroke-opacity:0.1; fill:none" points="1214.71,1094.73 1214.71,125.984 "/>
<polyline clip-path="url(#clip772)" style="stroke:#000000; stroke-linecap:round; stroke-linejoin:round; stroke-width:2; stroke-opacity:0.1; fill:none" points="1578.53,1094.73 1578.53,125.984 "/>
<polyline clip-path="url(#clip772)" style="stroke:#000000; stroke-linecap:round; stroke-linejoin:round; stroke-width:2; stroke-opacity:0.1; fill:none" points="1942.36,1094.73 1942.36,125.984 "/>
<polyline clip-path="url(#clip770)" style="stroke:#000000; stroke-linecap:round; stroke-linejoin:round; stroke-width:4; stroke-opacity:1; fill:none" points="443.404,1094.73 1986.02,1094.73 "/>
<polyline clip-path="url(#clip770)" style="stroke:#000000; stroke-linecap:round; stroke-linejoin:round; stroke-width:4; stroke-opacity:1; fill:none" points="487.062,1094.73 487.062,1075.83 "/>
<polyline clip-path="url(#clip770)" style="stroke:#000000; stroke-linecap:round; stroke-linejoin:round; stroke-width:4; stroke-opacity:1; fill:none" points="850.886,1094.73 850.886,1075.83 "/>
<polyline clip-path="url(#clip770)" style="stroke:#000000; stroke-linecap:round; stroke-linejoin:round; stroke-width:4; stroke-opacity:1; fill:none" points="1214.71,1094.73 1214.71,1075.83 "/>
<polyline clip-path="url(#clip770)" style="stroke:#000000; stroke-linecap:round; stroke-linejoin:round; stroke-width:4; stroke-opacity:1; fill:none" points="1578.53,1094.73 1578.53,1075.83 "/>
<polyline clip-path="url(#clip770)" style="stroke:#000000; stroke-linecap:round; stroke-linejoin:round; stroke-width:4; stroke-opacity:1; fill:none" points="1942.36,1094.73 1942.36,1075.83 "/>
<path clip-path="url(#clip770)" d="M464.447 1123.35 Q460.836 1123.35 459.007 1126.91 Q457.201 1130.45 457.201 1137.58 Q457.201 1144.69 459.007 1148.25 Q460.836 1151.79 464.447 1151.79 Q468.081 1151.79 469.887 1148.25 Q471.715 1144.69 471.715 1137.58 Q471.715 1130.45 469.887 1126.91 Q468.081 1123.35 464.447 1123.35 M464.447 1119.64 Q470.257 1119.64 473.312 1124.25 Q476.391 1128.83 476.391 1137.58 Q476.391 1146.31 473.312 1150.91 Q470.257 1155.5 464.447 1155.5 Q458.637 1155.5 455.558 1150.91 Q452.502 1146.31 452.502 1137.58 Q452.502 1128.83 455.558 1124.25 Q458.637 1119.64 464.447 1119.64 Z" fill="#000000" fill-rule="nonzero" fill-opacity="1" /><path clip-path="url(#clip770)" d="M484.609 1148.95 L489.493 1148.95 L489.493 1154.83 L484.609 1154.83 L484.609 1148.95 Z" fill="#000000" fill-rule="nonzero" fill-opacity="1" /><path clip-path="url(#clip770)" d="M509.678 1123.35 Q506.067 1123.35 504.238 1126.91 Q502.433 1130.45 502.433 1137.58 Q502.433 1144.69 504.238 1148.25 Q506.067 1151.79 509.678 1151.79 Q513.312 1151.79 515.118 1148.25 Q516.947 1144.69 516.947 1137.58 Q516.947 1130.45 515.118 1126.91 Q513.312 1123.35 509.678 1123.35 M509.678 1119.64 Q515.488 1119.64 518.544 1124.25 Q521.622 1128.83 521.622 1137.58 Q521.622 1146.31 518.544 1150.91 Q515.488 1155.5 509.678 1155.5 Q503.868 1155.5 500.789 1150.91 Q497.734 1146.31 497.734 1137.58 Q497.734 1128.83 500.789 1124.25 Q503.868 1119.64 509.678 1119.64 Z" fill="#000000" fill-rule="nonzero" fill-opacity="1" /><path clip-path="url(#clip770)" d="M822.622 1150.89 L838.942 1150.89 L838.942 1154.83 L816.997 1154.83 L816.997 1150.89 Q819.659 1148.14 824.243 1143.51 Q828.849 1138.85 830.03 1137.51 Q832.275 1134.99 833.155 1133.25 Q834.057 1131.49 834.057 1129.8 Q834.057 1127.05 832.113 1125.31 Q830.192 1123.58 827.09 1123.58 Q824.891 1123.58 822.437 1124.34 Q820.007 1125.1 817.229 1126.66 L817.229 1121.93 Q820.053 1120.8 822.507 1120.22 Q824.96 1119.64 826.997 1119.64 Q832.368 1119.64 835.562 1122.33 Q838.756 1125.01 838.756 1129.5 Q838.756 1131.63 837.946 1133.55 Q837.159 1135.45 835.053 1138.04 Q834.474 1138.72 831.372 1141.93 Q828.27 1145.13 822.622 1150.89 Z" fill="#000000" fill-rule="nonzero" fill-opacity="1" /><path clip-path="url(#clip770)" d="M848.756 1148.95 L853.641 1148.95 L853.641 1154.83 L848.756 1154.83 L848.756 1148.95 Z" fill="#000000" fill-rule="nonzero" fill-opacity="1" /><path clip-path="url(#clip770)" d="M863.872 1120.27 L882.228 1120.27 L882.228 1124.2 L868.154 1124.2 L868.154 1132.67 Q869.173 1132.33 870.191 1132.16 Q871.21 1131.98 872.229 1131.98 Q878.016 1131.98 881.395 1135.15 Q884.775 1138.32 884.775 1143.74 Q884.775 1149.32 881.303 1152.42 Q877.83 1155.5 871.511 1155.5 Q869.335 1155.5 867.067 1155.13 Q864.821 1154.76 862.414 1154.02 L862.414 1149.32 Q864.497 1150.45 866.719 1151.01 Q868.942 1151.56 871.418 1151.56 Q875.423 1151.56 877.761 1149.46 Q880.099 1147.35 880.099 1143.74 Q880.099 1140.13 877.761 1138.02 Q875.423 1135.91 871.418 1135.91 Q869.543 1135.91 867.668 1136.33 Q865.817 1136.75 863.872 1137.63 L863.872 1120.27 Z" fill="#000000" fill-rule="nonzero" fill-opacity="1" /><path clip-path="url(#clip770)" d="M1181.87 1120.27 L1200.23 1120.27 L1200.23 1124.2 L1186.16 1124.2 L1186.16 1132.67 Q1187.18 1132.33 1188.19 1132.16 Q1189.21 1131.98 1190.23 1131.98 Q1196.02 1131.98 1199.4 1135.15 Q1202.78 1138.32 1202.78 1143.74 Q1202.78 1149.32 1199.3 1152.42 Q1195.83 1155.5 1189.51 1155.5 Q1187.34 1155.5 1185.07 1155.13 Q1182.82 1154.76 1180.42 1154.02 L1180.42 1149.32 Q1182.5 1150.45 1184.72 1151.01 Q1186.94 1151.56 1189.42 1151.56 Q1193.43 1151.56 1195.76 1149.46 Q1198.1 1147.35 1198.1 1143.74 Q1198.1 1140.13 1195.76 1138.02 Q1193.43 1135.91 1189.42 1135.91 Q1187.55 1135.91 1185.67 1136.33 Q1183.82 1136.75 1181.87 1137.63 L1181.87 1120.27 Z" fill="#000000" fill-rule="nonzero" fill-opacity="1" /><path clip-path="url(#clip770)" d="M1211.99 1148.95 L1216.87 1148.95 L1216.87 1154.83 L1211.99 1154.83 L1211.99 1148.95 Z" fill="#000000" fill-rule="nonzero" fill-opacity="1" /><path clip-path="url(#clip770)" d="M1237.06 1123.35 Q1233.45 1123.35 1231.62 1126.91 Q1229.81 1130.45 1229.81 1137.58 Q1229.81 1144.69 1231.62 1148.25 Q1233.45 1151.79 1237.06 1151.79 Q1240.69 1151.79 1242.5 1148.25 Q1244.33 1144.69 1244.33 1137.58 Q1244.33 1130.45 1242.5 1126.91 Q1240.69 1123.35 1237.06 1123.35 M1237.06 1119.64 Q1242.87 1119.64 1245.92 1124.25 Q1249 1128.83 1249 1137.58 Q1249 1146.31 1245.92 1150.91 Q1242.87 1155.5 1237.06 1155.5 Q1231.25 1155.5 1228.17 1150.91 Q1225.11 1146.31 1225.11 1137.58 Q1225.11 1128.83 1228.17 1124.25 Q1231.25 1119.64 1237.06 1119.64 Z" fill="#000000" fill-rule="nonzero" fill-opacity="1" /><path clip-path="url(#clip770)" d="M1544.85 1120.27 L1567.08 1120.27 L1567.08 1122.26 L1554.53 1154.83 L1549.64 1154.83 L1561.45 1124.2 L1544.85 1124.2 L1544.85 1120.27 Z" fill="#000000" fill-rule="nonzero" fill-opacity="1" /><path clip-path="url(#clip770)" d="M1576.2 1148.95 L1581.08 1148.95 L1581.08 1154.83 L1576.2 1154.83 L1576.2 1148.95 Z" fill="#000000" fill-rule="nonzero" fill-opacity="1" /><path clip-path="url(#clip770)" d="M1591.31 1120.27 L1609.67 1120.27 L1609.67 1124.2 L1595.59 1124.2 L1595.59 1132.67 Q1596.61 1132.33 1597.63 1132.16 Q1598.65 1131.98 1599.67 1131.98 Q1605.45 1131.98 1608.83 1135.15 Q1612.21 1138.32 1612.21 1143.74 Q1612.21 1149.32 1608.74 1152.42 Q1605.27 1155.5 1598.95 1155.5 Q1596.77 1155.5 1594.51 1155.13 Q1592.26 1154.76 1589.85 1154.02 L1589.85 1149.32 Q1591.94 1150.45 1594.16 1151.01 Q1596.38 1151.56 1598.86 1151.56 Q1602.86 1151.56 1605.2 1149.46 Q1607.54 1147.35 1607.54 1143.74 Q1607.54 1140.13 1605.2 1138.02 Q1602.86 1135.91 1598.86 1135.91 Q1596.98 1135.91 1595.11 1136.33 Q1593.26 1136.75 1591.31 1137.63 L1591.31 1120.27 Z" fill="#000000" fill-rule="nonzero" fill-opacity="1" /><path clip-path="url(#clip770)" d="M1894.43 1150.89 L1902.07 1150.89 L1902.07 1124.53 L1893.76 1126.19 L1893.76 1121.93 L1902.02 1120.27 L1906.7 1120.27 L1906.7 1150.89 L1914.34 1150.89 L1914.34 1154.83 L1894.43 1154.83 L1894.43 1150.89 Z" fill="#000000" fill-rule="nonzero" fill-opacity="1" /><path clip-path="url(#clip770)" d="M1933.78 1123.35 Q1930.17 1123.35 1928.34 1126.91 Q1926.54 1130.45 1926.54 1137.58 Q1926.54 1144.69 1928.34 1148.25 Q1930.17 1151.79 1933.78 1151.79 Q1937.41 1151.79 1939.22 1148.25 Q1941.05 1144.69 1941.05 1137.58 Q1941.05 1130.45 1939.22 1126.91 Q1937.41 1123.35 1933.78 1123.35 M1933.78 1119.64 Q1939.59 1119.64 1942.65 1124.25 Q1945.72 1128.83 1945.72 1137.58 Q1945.72 1146.31 1942.65 1150.91 Q1939.59 1155.5 1933.78 1155.5 Q1927.97 1155.5 1924.89 1150.91 Q1921.84 1146.31 1921.84 1137.58 Q1921.84 1128.83 1924.89 1124.25 Q1927.97 1119.64 1933.78 1119.64 Z" fill="#000000" fill-rule="nonzero" fill-opacity="1" /><path clip-path="url(#clip770)" d="M1953.94 1148.95 L1958.83 1148.95 L1958.83 1154.83 L1953.94 1154.83 L1953.94 1148.95 Z" fill="#000000" fill-rule="nonzero" fill-opacity="1" /><path clip-path="url(#clip770)" d="M1979.01 1123.35 Q1975.4 1123.35 1973.57 1126.91 Q1971.77 1130.45 1971.77 1137.58 Q1971.77 1144.69 1973.57 1148.25 Q1975.4 1151.79 1979.01 1151.79 Q1982.65 1151.79 1984.45 1148.25 Q1986.28 1144.69 1986.28 1137.58 Q1986.28 1130.45 1984.45 1126.91 Q1982.65 1123.35 1979.01 1123.35 M1979.01 1119.64 Q1984.82 1119.64 1987.88 1124.25 Q1990.96 1128.83 1990.96 1137.58 Q1990.96 1146.31 1987.88 1150.91 Q1984.82 1155.5 1979.01 1155.5 Q1973.2 1155.5 1970.12 1150.91 Q1967.07 1146.31 1967.07 1137.58 Q1967.07 1128.83 1970.12 1124.25 Q1973.2 1119.64 1979.01 1119.64 Z" fill="#000000" fill-rule="nonzero" fill-opacity="1" /><path clip-path="url(#clip770)" d="M829.632 1187.75 L836.062 1187.75 L836.062 1207.23 L859.424 1207.23 L859.424 1187.75 L865.853 1187.75 L865.853 1235.27 L859.424 1235.27 L859.424 1212.64 L836.062 1212.64 L836.062 1235.27 L829.632 1235.27 L829.632 1187.75 Z" fill="#000000" fill-rule="nonzero" fill-opacity="1" /><path clip-path="url(#clip770)" d="M892.207 1203.73 Q887.496 1203.73 884.759 1207.42 Q882.022 1211.08 882.022 1217.48 Q882.022 1223.88 884.727 1227.57 Q887.465 1231.23 892.207 1231.23 Q896.886 1231.23 899.623 1227.54 Q902.36 1223.85 902.36 1217.48 Q902.36 1211.15 899.623 1207.46 Q896.886 1203.73 892.207 1203.73 M892.207 1198.77 Q899.846 1198.77 904.206 1203.73 Q908.567 1208.7 908.567 1217.48 Q908.567 1226.24 904.206 1231.23 Q899.846 1236.2 892.207 1236.2 Q884.536 1236.2 880.176 1231.23 Q875.847 1226.24 875.847 1217.48 Q875.847 1208.7 880.176 1203.73 Q884.536 1198.77 892.207 1198.77 Z" fill="#000000" fill-rule="nonzero" fill-opacity="1" /><path clip-path="url(#clip770)" d="M914.869 1199.63 L920.725 1199.63 L928.046 1227.44 L935.335 1199.63 L942.242 1199.63 L949.562 1227.44 L956.851 1199.63 L962.707 1199.63 L953.381 1235.27 L946.475 1235.27 L938.804 1206.06 L931.102 1235.27 L924.195 1235.27 L914.869 1199.63 Z" fill="#000000" fill-rule="nonzero" fill-opacity="1" /><path clip-path="url(#clip770)" d="M992.562 1187.75 L998.992 1187.75 L998.992 1207.23 L1022.35 1207.23 L1022.35 1187.75 L1028.78 1187.75 L1028.78 1235.27 L1022.35 1235.27 L1022.35 1212.64 L998.992 1212.64 L998.992 1235.27 L992.562 1235.27 L992.562 1187.75 Z" fill="#000000" fill-rule="nonzero" fill-opacity="1" /><path clip-path="url(#clip770)" d="M1041.32 1199.63 L1047.18 1199.63 L1047.18 1235.27 L1041.32 1235.27 L1041.32 1199.63 M1041.32 1185.75 L1047.18 1185.75 L1047.18 1193.17 L1041.32 1193.17 L1041.32 1185.75 Z" fill="#000000" fill-rule="nonzero" fill-opacity="1" /><path clip-path="url(#clip770)" d="M1082.89 1217.04 Q1082.89 1210.67 1080.25 1207.17 Q1077.64 1203.67 1072.9 1203.67 Q1068.19 1203.67 1065.55 1207.17 Q1062.94 1210.67 1062.94 1217.04 Q1062.94 1223.37 1065.55 1226.87 Q1068.19 1230.37 1072.9 1230.37 Q1077.64 1230.37 1080.25 1226.87 Q1082.89 1223.37 1082.89 1217.04 M1088.75 1230.85 Q1088.75 1239.95 1084.71 1244.38 Q1080.66 1248.83 1072.32 1248.83 Q1069.24 1248.83 1066.5 1248.36 Q1063.76 1247.91 1061.18 1246.96 L1061.18 1241.26 Q1063.76 1242.66 1066.28 1243.33 Q1068.79 1244 1071.4 1244 Q1077.16 1244 1080.03 1240.97 Q1082.89 1237.98 1082.89 1231.9 L1082.89 1229 Q1081.08 1232.16 1078.24 1233.71 Q1075.41 1235.27 1071.47 1235.27 Q1064.91 1235.27 1060.9 1230.28 Q1056.89 1225.28 1056.89 1217.04 Q1056.89 1208.76 1060.9 1203.76 Q1064.91 1198.77 1071.47 1198.77 Q1075.41 1198.77 1078.24 1200.33 Q1081.08 1201.89 1082.89 1205.04 L1082.89 1199.63 L1088.75 1199.63 L1088.75 1230.85 Z" fill="#000000" fill-rule="nonzero" fill-opacity="1" /><path clip-path="url(#clip770)" d="M1130.44 1213.76 L1130.44 1235.27 L1124.59 1235.27 L1124.59 1213.95 Q1124.59 1208.89 1122.61 1206.37 Q1120.64 1203.86 1116.69 1203.86 Q1111.95 1203.86 1109.21 1206.88 Q1106.48 1209.91 1106.48 1215.13 L1106.48 1235.27 L1100.59 1235.27 L1100.59 1185.75 L1106.48 1185.75 L1106.48 1205.16 Q1108.58 1201.95 1111.41 1200.36 Q1114.27 1198.77 1118 1198.77 Q1124.14 1198.77 1127.29 1202.59 Q1130.44 1206.37 1130.44 1213.76 Z" fill="#000000" fill-rule="nonzero" fill-opacity="1" /><path clip-path="url(#clip770)" d="M1168.64 1189.51 L1168.64 1199.63 L1180.7 1199.63 L1180.7 1204.18 L1168.64 1204.18 L1168.64 1223.53 Q1168.64 1227.89 1169.82 1229.13 Q1171.03 1230.37 1174.69 1230.37 L1180.7 1230.37 L1180.7 1235.27 L1174.69 1235.27 Q1167.91 1235.27 1165.33 1232.76 Q1162.75 1230.21 1162.75 1223.53 L1162.75 1204.18 L1158.45 1204.18 L1158.45 1199.63 L1162.75 1199.63 L1162.75 1189.51 L1168.64 1189.51 Z" fill="#000000" fill-rule="nonzero" fill-opacity="1" /><path clip-path="url(#clip770)" d="M1202.22 1203.73 Q1197.51 1203.73 1194.77 1207.42 Q1192.03 1211.08 1192.03 1217.48 Q1192.03 1223.88 1194.74 1227.57 Q1197.47 1231.23 1202.22 1231.23 Q1206.9 1231.23 1209.63 1227.54 Q1212.37 1223.85 1212.37 1217.48 Q1212.37 1211.15 1209.63 1207.46 Q1206.9 1203.73 1202.22 1203.73 M1202.22 1198.77 Q1209.86 1198.77 1214.22 1203.73 Q1218.58 1208.7 1218.58 1217.48 Q1218.58 1226.24 1214.22 1231.23 Q1209.86 1236.2 1202.22 1236.2 Q1194.55 1236.2 1190.19 1231.23 Q1185.86 1226.24 1185.86 1217.48 Q1185.86 1208.7 1190.19 1203.73 Q1194.55 1198.77 1202.22 1198.77 Z" fill="#000000" fill-rule="nonzero" fill-opacity="1" /><path clip-path="url(#clip770)" d="M1249.26 1187.75 L1279.31 1187.75 L1279.31 1193.17 L1255.69 1193.17 L1255.69 1207.23 L1278.32 1207.23 L1278.32 1212.64 L1255.69 1212.64 L1255.69 1229.86 L1279.88 1229.86 L1279.88 1235.27 L1249.26 1235.27 L1249.26 1187.75 Z" fill="#000000" fill-rule="nonzero" fill-opacity="1" /><path clip-path="url(#clip770)" d="M1290.19 1185.75 L1296.05 1185.75 L1296.05 1235.27 L1290.19 1235.27 L1290.19 1185.75 Z" fill="#000000" fill-rule="nonzero" fill-opacity="1" /><path clip-path="url(#clip770)" d="M1338.79 1215.99 L1338.79 1218.85 L1311.87 1218.85 Q1312.25 1224.9 1315.49 1228.08 Q1318.77 1231.23 1324.6 1231.23 Q1327.97 1231.23 1331.12 1230.4 Q1334.31 1229.58 1337.42 1227.92 L1337.42 1233.46 Q1334.27 1234.8 1330.96 1235.5 Q1327.65 1236.2 1324.25 1236.2 Q1315.72 1236.2 1310.72 1231.23 Q1305.76 1226.27 1305.76 1217.8 Q1305.76 1209.05 1310.47 1203.92 Q1315.21 1198.77 1323.23 1198.77 Q1330.42 1198.77 1334.59 1203.41 Q1338.79 1208.03 1338.79 1215.99 M1332.94 1214.27 Q1332.87 1209.46 1330.23 1206.6 Q1327.62 1203.73 1323.29 1203.73 Q1318.39 1203.73 1315.43 1206.5 Q1312.5 1209.27 1312.06 1214.3 L1332.94 1214.27 Z" fill="#000000" fill-rule="nonzero" fill-opacity="1" /><path clip-path="url(#clip770)" d="M1344.2 1199.63 L1350.41 1199.63 L1361.55 1229.55 L1372.69 1199.63 L1378.9 1199.63 L1365.53 1235.27 L1357.57 1235.27 L1344.2 1199.63 Z" fill="#000000" fill-rule="nonzero" fill-opacity="1" /><path clip-path="url(#clip770)" d="M1403.18 1217.36 Q1396.08 1217.36 1393.35 1218.98 Q1390.61 1220.6 1390.61 1224.52 Q1390.61 1227.64 1392.65 1229.48 Q1394.72 1231.3 1398.25 1231.3 Q1403.12 1231.3 1406.05 1227.86 Q1409.01 1224.39 1409.01 1218.66 L1409.01 1217.36 L1403.18 1217.36 M1414.86 1214.94 L1414.86 1235.27 L1409.01 1235.27 L1409.01 1229.86 Q1407 1233.11 1404.01 1234.67 Q1401.02 1236.2 1396.69 1236.2 Q1391.21 1236.2 1387.97 1233.14 Q1384.75 1230.05 1384.75 1224.9 Q1384.75 1218.88 1388.76 1215.83 Q1392.81 1212.77 1400.8 1212.77 L1409.01 1212.77 L1409.01 1212.2 Q1409.01 1208.16 1406.33 1205.96 Q1403.69 1203.73 1398.89 1203.73 Q1395.83 1203.73 1392.93 1204.46 Q1390.04 1205.2 1387.36 1206.66 L1387.36 1201.25 Q1390.58 1200.01 1393.6 1199.4 Q1396.63 1198.77 1399.49 1198.77 Q1407.22 1198.77 1411.04 1202.78 Q1414.86 1206.79 1414.86 1214.94 Z" fill="#000000" fill-rule="nonzero" fill-opacity="1" /><path clip-path="url(#clip770)" d="M1432.72 1189.51 L1432.72 1199.63 L1444.78 1199.63 L1444.78 1204.18 L1432.72 1204.18 L1432.72 1223.53 Q1432.72 1227.89 1433.9 1229.13 Q1435.11 1230.37 1438.77 1230.37 L1444.78 1230.37 L1444.78 1235.27 L1438.77 1235.27 Q1431.99 1235.27 1429.41 1232.76 Q1426.83 1230.21 1426.83 1223.53 L1426.83 1204.18 L1422.53 1204.18 L1422.53 1199.63 L1426.83 1199.63 L1426.83 1189.51 L1432.72 1189.51 Z" fill="#000000" fill-rule="nonzero" fill-opacity="1" /><path clip-path="url(#clip770)" d="M1482.98 1215.99 L1482.98 1218.85 L1456.05 1218.85 Q1456.43 1224.9 1459.68 1228.08 Q1462.96 1231.23 1468.78 1231.23 Q1472.15 1231.23 1475.31 1230.4 Q1478.49 1229.58 1481.61 1227.92 L1481.61 1233.46 Q1478.46 1234.8 1475.15 1235.5 Q1471.84 1236.2 1468.43 1236.2 Q1459.9 1236.2 1454.9 1231.23 Q1449.94 1226.27 1449.94 1217.8 Q1449.94 1209.05 1454.65 1203.92 Q1459.39 1198.77 1467.41 1198.77 Q1474.61 1198.77 1478.78 1203.41 Q1482.98 1208.03 1482.98 1215.99 M1477.12 1214.27 Q1477.06 1209.46 1474.41 1206.6 Q1471.8 1203.73 1467.48 1203.73 Q1462.57 1203.73 1459.61 1206.5 Q1456.69 1209.27 1456.24 1214.3 L1477.12 1214.27 Z" fill="#000000" fill-rule="nonzero" fill-opacity="1" /><path clip-path="url(#clip770)" d="M1527.38 1185.81 Q1523.11 1193.13 1521.04 1200.3 Q1518.97 1207.46 1518.97 1214.81 Q1518.97 1222.16 1521.04 1229.39 Q1523.14 1236.58 1527.38 1243.87 L1522.28 1243.87 Q1517.51 1236.39 1515.12 1229.16 Q1512.77 1221.94 1512.77 1214.81 Q1512.77 1207.71 1515.12 1200.52 Q1517.48 1193.32 1522.28 1185.81 L1527.38 1185.81 Z" fill="#000000" fill-rule="nonzero" fill-opacity="1" /><path clip-path="url(#clip770)" d="M1556.79 1185.75 L1556.79 1190.62 L1551.19 1190.62 Q1548.03 1190.62 1546.79 1191.89 Q1545.58 1193.17 1545.58 1196.48 L1545.58 1199.63 L1555.23 1199.63 L1555.23 1204.18 L1545.58 1204.18 L1545.58 1235.27 L1539.69 1235.27 L1539.69 1204.18 L1534.09 1204.18 L1534.09 1199.63 L1539.69 1199.63 L1539.69 1197.14 Q1539.69 1191.19 1542.46 1188.49 Q1545.23 1185.75 1551.25 1185.75 L1556.79 1185.75 Z" fill="#000000" fill-rule="nonzero" fill-opacity="1" /><path clip-path="url(#clip770)" d="M1566.34 1189.51 L1566.34 1199.63 L1578.4 1199.63 L1578.4 1204.18 L1566.34 1204.18 L1566.34 1223.53 Q1566.34 1227.89 1567.51 1229.13 Q1568.72 1230.37 1572.38 1230.37 L1578.4 1230.37 L1578.4 1235.27 L1572.38 1235.27 Q1565.6 1235.27 1563.03 1232.76 Q1560.45 1230.21 1560.45 1223.53 L1560.45 1204.18 L1556.15 1204.18 L1556.15 1199.63 L1560.45 1199.63 L1560.45 1189.51 L1566.34 1189.51 Z" fill="#000000" fill-rule="nonzero" fill-opacity="1" /><path clip-path="url(#clip770)" d="M1585.18 1185.81 L1590.27 1185.81 Q1595.04 1193.32 1597.4 1200.52 Q1599.79 1207.71 1599.79 1214.81 Q1599.79 1221.94 1597.4 1229.16 Q1595.04 1236.39 1590.27 1243.87 L1585.18 1243.87 Q1589.41 1236.58 1591.48 1229.39 Q1593.58 1222.16 1593.58 1214.81 Q1593.58 1207.46 1591.48 1200.3 Q1589.41 1193.13 1585.18 1185.81 Z" fill="#000000" fill-rule="nonzero" fill-opacity="1" /><polyline clip-path="url(#clip772)" style="stroke:#000000; stroke-linecap:round; stroke-linejoin:round; stroke-width:2; stroke-opacity:0.1; fill:none" points="443.404,1067.31 1986.02,1067.31 "/>
<polyline clip-path="url(#clip772)" style="stroke:#000000; stroke-linecap:round; stroke-linejoin:round; stroke-width:2; stroke-opacity:0.1; fill:none" points="443.404,867.761 1986.02,867.761 "/>
<polyline clip-path="url(#clip772)" style="stroke:#000000; stroke-linecap:round; stroke-linejoin:round; stroke-width:2; stroke-opacity:0.1; fill:none" points="443.404,668.208 1986.02,668.208 "/>
<polyline clip-path="url(#clip772)" style="stroke:#000000; stroke-linecap:round; stroke-linejoin:round; stroke-width:2; stroke-opacity:0.1; fill:none" points="443.404,468.655 1986.02,468.655 "/>
<polyline clip-path="url(#clip772)" style="stroke:#000000; stroke-linecap:round; stroke-linejoin:round; stroke-width:2; stroke-opacity:0.1; fill:none" points="443.404,269.102 1986.02,269.102 "/>
<polyline clip-path="url(#clip770)" style="stroke:#000000; stroke-linecap:round; stroke-linejoin:round; stroke-width:4; stroke-opacity:1; fill:none" points="443.404,1094.73 443.404,125.984 "/>
<polyline clip-path="url(#clip770)" style="stroke:#000000; stroke-linecap:round; stroke-linejoin:round; stroke-width:4; stroke-opacity:1; fill:none" points="443.404,1067.31 462.301,1067.31 "/>
<polyline clip-path="url(#clip770)" style="stroke:#000000; stroke-linecap:round; stroke-linejoin:round; stroke-width:4; stroke-opacity:1; fill:none" points="443.404,867.761 462.301,867.761 "/>
<polyline clip-path="url(#clip770)" style="stroke:#000000; stroke-linecap:round; stroke-linejoin:round; stroke-width:4; stroke-opacity:1; fill:none" points="443.404,668.208 462.301,668.208 "/>
<polyline clip-path="url(#clip770)" style="stroke:#000000; stroke-linecap:round; stroke-linejoin:round; stroke-width:4; stroke-opacity:1; fill:none" points="443.404,468.655 462.301,468.655 "/>
<polyline clip-path="url(#clip770)" style="stroke:#000000; stroke-linecap:round; stroke-linejoin:round; stroke-width:4; stroke-opacity:1; fill:none" points="443.404,269.102 462.301,269.102 "/>
<path clip-path="url(#clip770)" d="M399.779 1053.11 Q396.168 1053.11 394.339 1056.68 Q392.534 1060.22 392.534 1067.35 Q392.534 1074.45 394.339 1078.02 Q396.168 1081.56 399.779 1081.56 Q403.413 1081.56 405.219 1078.02 Q407.048 1074.45 407.048 1067.35 Q407.048 1060.22 405.219 1056.68 Q403.413 1053.11 399.779 1053.11 M399.779 1049.41 Q405.589 1049.41 408.645 1054.01 Q411.724 1058.6 411.724 1067.35 Q411.724 1076.07 408.645 1080.68 Q405.589 1085.26 399.779 1085.26 Q393.969 1085.26 390.89 1080.68 Q387.835 1076.07 387.835 1067.35 Q387.835 1058.6 390.89 1054.01 Q393.969 1049.41 399.779 1049.41 Z" fill="#000000" fill-rule="nonzero" fill-opacity="1" /><path clip-path="url(#clip770)" d="M197.905 887.553 L214.225 887.553 L214.225 891.488 L192.28 891.488 L192.28 887.553 Q194.942 884.798 199.526 880.169 Q204.132 875.516 205.313 874.173 Q207.558 871.65 208.438 869.914 Q209.34 868.155 209.34 866.465 Q209.34 863.71 207.396 861.974 Q205.475 860.238 202.373 860.238 Q200.174 860.238 197.72 861.002 Q195.29 861.766 192.512 863.317 L192.512 858.595 Q195.336 857.461 197.79 856.882 Q200.243 856.303 202.28 856.303 Q207.651 856.303 210.845 858.988 Q214.039 861.673 214.039 866.164 Q214.039 868.294 213.229 870.215 Q212.442 872.113 210.336 874.706 Q209.757 875.377 206.655 878.595 Q203.553 881.789 197.905 887.553 Z" fill="#000000" fill-rule="nonzero" fill-opacity="1" /><path clip-path="url(#clip770)" d="M224.039 885.609 L228.924 885.609 L228.924 891.488 L224.039 891.488 L224.039 885.609 Z" fill="#000000" fill-rule="nonzero" fill-opacity="1" /><path clip-path="url(#clip770)" d="M239.155 856.928 L257.511 856.928 L257.511 860.863 L243.437 860.863 L243.437 869.335 Q244.456 868.988 245.474 868.826 Q246.493 868.641 247.512 868.641 Q253.299 868.641 256.678 871.812 Q260.058 874.984 260.058 880.4 Q260.058 885.979 256.586 889.081 Q253.113 892.159 246.794 892.159 Q244.618 892.159 242.349 891.789 Q240.104 891.419 237.697 890.678 L237.697 885.979 Q239.78 887.113 242.002 887.669 Q244.224 888.224 246.701 888.224 Q250.706 888.224 253.044 886.118 Q255.382 884.011 255.382 880.4 Q255.382 876.789 253.044 874.683 Q250.706 872.576 246.701 872.576 Q244.826 872.576 242.951 872.993 Q241.099 873.409 239.155 874.289 L239.155 856.928 Z" fill="#000000" fill-rule="nonzero" fill-opacity="1" /><path clip-path="url(#clip770)" d="M279.271 860.007 Q275.659 860.007 273.831 863.572 Q272.025 867.113 272.025 874.243 Q272.025 881.349 273.831 884.914 Q275.659 888.456 279.271 888.456 Q282.905 888.456 284.71 884.914 Q286.539 881.349 286.539 874.243 Q286.539 867.113 284.71 863.572 Q282.905 860.007 279.271 860.007 M279.271 856.303 Q285.081 856.303 288.136 860.91 Q291.215 865.493 291.215 874.243 Q291.215 882.97 288.136 887.576 Q285.081 892.159 279.271 892.159 Q273.46 892.159 270.382 887.576 Q267.326 882.97 267.326 874.243 Q267.326 865.493 270.382 860.91 Q273.46 856.303 279.271 856.303 Z" fill="#000000" fill-rule="nonzero" fill-opacity="1" /><path clip-path="url(#clip770)" d="M327.604 866.025 L317.025 876.65 L327.604 887.229 L324.849 890.03 L314.224 879.405 L303.599 890.03 L300.868 887.229 L311.423 876.65 L300.868 866.025 L303.599 863.224 L314.224 873.849 L324.849 863.224 L327.604 866.025 Z" fill="#000000" fill-rule="nonzero" fill-opacity="1" /><path clip-path="url(#clip770)" d="M339.965 887.553 L347.604 887.553 L347.604 861.187 L339.293 862.854 L339.293 858.595 L347.557 856.928 L352.233 856.928 L352.233 887.553 L359.872 887.553 L359.872 891.488 L339.965 891.488 L339.965 887.553 Z" fill="#000000" fill-rule="nonzero" fill-opacity="1" /><path clip-path="url(#clip770)" d="M379.316 860.007 Q375.705 860.007 373.877 863.572 Q372.071 867.113 372.071 874.243 Q372.071 881.349 373.877 884.914 Q375.705 888.456 379.316 888.456 Q382.951 888.456 384.756 884.914 Q386.585 881.349 386.585 874.243 Q386.585 867.113 384.756 863.572 Q382.951 860.007 379.316 860.007 M379.316 856.303 Q385.127 856.303 388.182 860.91 Q391.261 865.493 391.261 874.243 Q391.261 882.97 388.182 887.576 Q385.127 892.159 379.316 892.159 Q373.506 892.159 370.428 887.576 Q367.372 882.97 367.372 874.243 Q367.372 865.493 370.428 860.91 Q373.506 856.303 379.316 856.303 Z" fill="#000000" fill-rule="nonzero" fill-opacity="1" /><path clip-path="url(#clip770)" d="M403.937 839.308 L394.345 854.298 L403.937 854.298 L403.937 839.308 M402.94 835.998 L407.718 835.998 L407.718 854.298 L411.724 854.298 L411.724 857.457 L407.718 857.457 L407.718 864.078 L403.937 864.078 L403.937 857.457 L391.261 857.457 L391.261 853.79 L402.94 835.998 Z" fill="#000000" fill-rule="nonzero" fill-opacity="1" /><path clip-path="url(#clip770)" d="M193.924 657.375 L212.28 657.375 L212.28 661.311 L198.206 661.311 L198.206 669.783 Q199.225 669.435 200.243 669.273 Q201.262 669.088 202.28 669.088 Q208.067 669.088 211.447 672.26 Q214.826 675.431 214.826 680.847 Q214.826 686.426 211.354 689.528 Q207.882 692.607 201.563 692.607 Q199.387 692.607 197.118 692.236 Q194.873 691.866 192.465 691.125 L192.465 686.426 Q194.549 687.56 196.771 688.116 Q198.993 688.671 201.47 688.671 Q205.475 688.671 207.813 686.565 Q210.151 684.459 210.151 680.847 Q210.151 677.236 207.813 675.13 Q205.475 673.023 201.47 673.023 Q199.595 673.023 197.72 673.44 Q195.868 673.857 193.924 674.736 L193.924 657.375 Z" fill="#000000" fill-rule="nonzero" fill-opacity="1" /><path clip-path="url(#clip770)" d="M224.039 686.056 L228.924 686.056 L228.924 691.935 L224.039 691.935 L224.039 686.056 Z" fill="#000000" fill-rule="nonzero" fill-opacity="1" /><path clip-path="url(#clip770)" d="M249.109 660.454 Q245.498 660.454 243.669 664.019 Q241.863 667.56 241.863 674.69 Q241.863 681.797 243.669 685.361 Q245.498 688.903 249.109 688.903 Q252.743 688.903 254.548 685.361 Q256.377 681.797 256.377 674.69 Q256.377 667.56 254.548 664.019 Q252.743 660.454 249.109 660.454 M249.109 656.75 Q254.919 656.75 257.974 661.357 Q261.053 665.94 261.053 674.69 Q261.053 683.417 257.974 688.023 Q254.919 692.607 249.109 692.607 Q243.299 692.607 240.22 688.023 Q237.164 683.417 237.164 674.69 Q237.164 665.94 240.22 661.357 Q243.299 656.75 249.109 656.75 Z" fill="#000000" fill-rule="nonzero" fill-opacity="1" /><path clip-path="url(#clip770)" d="M279.271 660.454 Q275.659 660.454 273.831 664.019 Q272.025 667.56 272.025 674.69 Q272.025 681.797 273.831 685.361 Q275.659 688.903 279.271 688.903 Q282.905 688.903 284.71 685.361 Q286.539 681.797 286.539 674.69 Q286.539 667.56 284.71 664.019 Q282.905 660.454 279.271 660.454 M279.271 656.75 Q285.081 656.75 288.136 661.357 Q291.215 665.94 291.215 674.69 Q291.215 683.417 288.136 688.023 Q285.081 692.607 279.271 692.607 Q273.46 692.607 270.382 688.023 Q267.326 683.417 267.326 674.69 Q267.326 665.94 270.382 661.357 Q273.46 656.75 279.271 656.75 Z" fill="#000000" fill-rule="nonzero" fill-opacity="1" /><path clip-path="url(#clip770)" d="M327.604 666.473 L317.025 677.097 L327.604 687.676 L324.849 690.477 L314.224 679.852 L303.599 690.477 L300.868 687.676 L311.423 677.097 L300.868 666.473 L303.599 663.672 L314.224 674.297 L324.849 663.672 L327.604 666.473 Z" fill="#000000" fill-rule="nonzero" fill-opacity="1" /><path clip-path="url(#clip770)" d="M339.965 688 L347.604 688 L347.604 661.635 L339.293 663.301 L339.293 659.042 L347.557 657.375 L352.233 657.375 L352.233 688 L359.872 688 L359.872 691.935 L339.965 691.935 L339.965 688 Z" fill="#000000" fill-rule="nonzero" fill-opacity="1" /><path clip-path="url(#clip770)" d="M379.316 660.454 Q375.705 660.454 373.877 664.019 Q372.071 667.56 372.071 674.69 Q372.071 681.797 373.877 685.361 Q375.705 688.903 379.316 688.903 Q382.951 688.903 384.756 685.361 Q386.585 681.797 386.585 674.69 Q386.585 667.56 384.756 664.019 Q382.951 660.454 379.316 660.454 M379.316 656.75 Q385.127 656.75 388.182 661.357 Q391.261 665.94 391.261 674.69 Q391.261 683.417 388.182 688.023 Q385.127 692.607 379.316 692.607 Q373.506 692.607 370.428 688.023 Q367.372 683.417 367.372 674.69 Q367.372 665.94 370.428 661.357 Q373.506 656.75 379.316 656.75 Z" fill="#000000" fill-rule="nonzero" fill-opacity="1" /><path clip-path="url(#clip770)" d="M403.937 639.755 L394.345 654.745 L403.937 654.745 L403.937 639.755 M402.94 636.445 L407.718 636.445 L407.718 654.745 L411.724 654.745 L411.724 657.905 L407.718 657.905 L407.718 664.525 L403.937 664.525 L403.937 657.905 L391.261 657.905 L391.261 654.237 L402.94 636.445 Z" fill="#000000" fill-rule="nonzero" fill-opacity="1" /><path clip-path="url(#clip770)" d="M192.697 457.823 L214.919 457.823 L214.919 459.813 L202.373 492.383 L197.489 492.383 L209.294 461.758 L192.697 461.758 L192.697 457.823 Z" fill="#000000" fill-rule="nonzero" fill-opacity="1" /><path clip-path="url(#clip770)" d="M224.039 486.503 L228.924 486.503 L228.924 492.383 L224.039 492.383 L224.039 486.503 Z" fill="#000000" fill-rule="nonzero" fill-opacity="1" /><path clip-path="url(#clip770)" d="M239.155 457.823 L257.511 457.823 L257.511 461.758 L243.437 461.758 L243.437 470.23 Q244.456 469.883 245.474 469.721 Q246.493 469.536 247.512 469.536 Q253.299 469.536 256.678 472.707 Q260.058 475.878 260.058 481.295 Q260.058 486.873 256.586 489.975 Q253.113 493.054 246.794 493.054 Q244.618 493.054 242.349 492.684 Q240.104 492.313 237.697 491.572 L237.697 486.873 Q239.78 488.008 242.002 488.563 Q244.224 489.119 246.701 489.119 Q250.706 489.119 253.044 487.012 Q255.382 484.906 255.382 481.295 Q255.382 477.684 253.044 475.577 Q250.706 473.471 246.701 473.471 Q244.826 473.471 242.951 473.887 Q241.099 474.304 239.155 475.184 L239.155 457.823 Z" fill="#000000" fill-rule="nonzero" fill-opacity="1" /><path clip-path="url(#clip770)" d="M279.271 460.901 Q275.659 460.901 273.831 464.466 Q272.025 468.008 272.025 475.137 Q272.025 482.244 273.831 485.809 Q275.659 489.35 279.271 489.35 Q282.905 489.35 284.71 485.809 Q286.539 482.244 286.539 475.137 Q286.539 468.008 284.71 464.466 Q282.905 460.901 279.271 460.901 M279.271 457.198 Q285.081 457.198 288.136 461.804 Q291.215 466.387 291.215 475.137 Q291.215 483.864 288.136 488.471 Q285.081 493.054 279.271 493.054 Q273.46 493.054 270.382 488.471 Q267.326 483.864 267.326 475.137 Q267.326 466.387 270.382 461.804 Q273.46 457.198 279.271 457.198 Z" fill="#000000" fill-rule="nonzero" fill-opacity="1" /><path clip-path="url(#clip770)" d="M327.604 466.92 L317.025 477.545 L327.604 488.123 L324.849 490.924 L314.224 480.299 L303.599 490.924 L300.868 488.123 L311.423 477.545 L300.868 466.92 L303.599 464.119 L314.224 474.744 L324.849 464.119 L327.604 466.92 Z" fill="#000000" fill-rule="nonzero" fill-opacity="1" /><path clip-path="url(#clip770)" d="M339.965 488.447 L347.604 488.447 L347.604 462.082 L339.293 463.749 L339.293 459.489 L347.557 457.823 L352.233 457.823 L352.233 488.447 L359.872 488.447 L359.872 492.383 L339.965 492.383 L339.965 488.447 Z" fill="#000000" fill-rule="nonzero" fill-opacity="1" /><path clip-path="url(#clip770)" d="M379.316 460.901 Q375.705 460.901 373.877 464.466 Q372.071 468.008 372.071 475.137 Q372.071 482.244 373.877 485.809 Q375.705 489.35 379.316 489.35 Q382.951 489.35 384.756 485.809 Q386.585 482.244 386.585 475.137 Q386.585 468.008 384.756 464.466 Q382.951 460.901 379.316 460.901 M379.316 457.198 Q385.127 457.198 388.182 461.804 Q391.261 466.387 391.261 475.137 Q391.261 483.864 388.182 488.471 Q385.127 493.054 379.316 493.054 Q373.506 493.054 370.428 488.471 Q367.372 483.864 367.372 475.137 Q367.372 466.387 370.428 461.804 Q373.506 457.198 379.316 457.198 Z" fill="#000000" fill-rule="nonzero" fill-opacity="1" /><path clip-path="url(#clip770)" d="M403.937 440.202 L394.345 455.192 L403.937 455.192 L403.937 440.202 M402.94 436.892 L407.718 436.892 L407.718 455.192 L411.724 455.192 L411.724 458.352 L407.718 458.352 L407.718 464.972 L403.937 464.972 L403.937 458.352 L391.261 458.352 L391.261 454.684 L402.94 436.892 Z" fill="#000000" fill-rule="nonzero" fill-opacity="1" /><path clip-path="url(#clip770)" d="M196.982 288.895 L204.621 288.895 L204.621 262.529 L196.311 264.196 L196.311 259.937 L204.575 258.27 L209.251 258.27 L209.251 288.895 L216.89 288.895 L216.89 292.83 L196.982 292.83 L196.982 288.895 Z" fill="#000000" fill-rule="nonzero" fill-opacity="1" /><path clip-path="url(#clip770)" d="M226.334 286.95 L231.218 286.95 L231.218 292.83 L226.334 292.83 L226.334 286.95 Z" fill="#000000" fill-rule="nonzero" fill-opacity="1" /><path clip-path="url(#clip770)" d="M251.403 261.349 Q247.792 261.349 245.963 264.913 Q244.158 268.455 244.158 275.585 Q244.158 282.691 245.963 286.256 Q247.792 289.797 251.403 289.797 Q255.038 289.797 256.843 286.256 Q258.672 282.691 258.672 275.585 Q258.672 268.455 256.843 264.913 Q255.038 261.349 251.403 261.349 M251.403 257.645 Q257.213 257.645 260.269 262.251 Q263.348 266.835 263.348 275.585 Q263.348 284.311 260.269 288.918 Q257.213 293.501 251.403 293.501 Q245.593 293.501 242.514 288.918 Q239.459 284.311 239.459 275.585 Q239.459 266.835 242.514 262.251 Q245.593 257.645 251.403 257.645 Z" fill="#000000" fill-rule="nonzero" fill-opacity="1" /><path clip-path="url(#clip770)" d="M281.565 261.349 Q277.954 261.349 276.125 264.913 Q274.32 268.455 274.32 275.585 Q274.32 282.691 276.125 286.256 Q277.954 289.797 281.565 289.797 Q285.199 289.797 287.005 286.256 Q288.834 282.691 288.834 275.585 Q288.834 268.455 287.005 264.913 Q285.199 261.349 281.565 261.349 M281.565 257.645 Q287.375 257.645 290.431 262.251 Q293.51 266.835 293.51 275.585 Q293.51 284.311 290.431 288.918 Q287.375 293.501 281.565 293.501 Q275.755 293.501 272.676 288.918 Q269.621 284.311 269.621 275.585 Q269.621 266.835 272.676 262.251 Q275.755 257.645 281.565 257.645 Z" fill="#000000" fill-rule="nonzero" fill-opacity="1" /><path clip-path="url(#clip770)" d="M329.898 267.367 L319.32 277.992 L329.898 288.571 L327.144 291.372 L316.519 280.747 L305.894 291.372 L303.162 288.571 L313.718 277.992 L303.162 267.367 L305.894 264.566 L316.519 275.191 L327.144 264.566 L329.898 267.367 Z" fill="#000000" fill-rule="nonzero" fill-opacity="1" /><path clip-path="url(#clip770)" d="M342.259 288.895 L349.898 288.895 L349.898 262.529 L341.588 264.196 L341.588 259.937 L349.852 258.27 L354.528 258.27 L354.528 288.895 L362.167 288.895 L362.167 292.83 L342.259 292.83 L342.259 288.895 Z" fill="#000000" fill-rule="nonzero" fill-opacity="1" /><path clip-path="url(#clip770)" d="M381.611 261.349 Q378 261.349 376.171 264.913 Q374.366 268.455 374.366 275.585 Q374.366 282.691 376.171 286.256 Q378 289.797 381.611 289.797 Q385.245 289.797 387.051 286.256 Q388.879 282.691 388.879 275.585 Q388.879 268.455 387.051 264.913 Q385.245 261.349 381.611 261.349 M381.611 257.645 Q387.421 257.645 390.477 262.251 Q393.555 266.835 393.555 275.585 Q393.555 284.311 390.477 288.918 Q387.421 293.501 381.611 293.501 Q375.801 293.501 372.722 288.918 Q369.667 284.311 369.667 275.585 Q369.667 266.835 372.722 262.251 Q375.801 257.645 381.611 257.645 Z" fill="#000000" fill-rule="nonzero" fill-opacity="1" /><path clip-path="url(#clip770)" d="M394.74 237.339 L409.655 237.339 L409.655 240.537 L398.22 240.537 L398.22 247.42 Q399.047 247.138 399.875 247.007 Q400.702 246.856 401.53 246.856 Q406.232 246.856 408.978 249.433 Q411.724 252.01 411.724 256.411 Q411.724 260.943 408.902 263.463 Q406.081 265.965 400.947 265.965 Q399.179 265.965 397.336 265.664 Q395.511 265.363 393.555 264.761 L393.555 260.943 Q395.248 261.865 397.054 262.316 Q398.859 262.768 400.872 262.768 Q404.125 262.768 406.025 261.056 Q407.924 259.345 407.924 256.411 Q407.924 253.477 406.025 251.765 Q404.125 250.054 400.872 250.054 Q399.348 250.054 397.825 250.392 Q396.32 250.731 394.74 251.445 L394.74 237.339 Z" fill="#000000" fill-rule="nonzero" fill-opacity="1" /><path clip-path="url(#clip770)" d="M102.485 745.294 L109.264 745.294 Q106.24 748.541 104.744 752.233 Q103.248 755.893 103.248 760.031 Q103.248 768.179 108.246 772.508 Q113.211 776.837 122.632 776.837 Q132.021 776.837 137.019 772.508 Q141.984 768.179 141.984 760.031 Q141.984 755.893 140.488 752.233 Q138.992 748.541 135.968 745.294 L142.684 745.294 Q144.976 748.668 146.122 752.456 Q147.267 756.212 147.267 760.413 Q147.267 771.203 140.679 777.409 Q134.059 783.616 122.632 783.616 Q111.174 783.616 104.585 777.409 Q97.9649 771.203 97.9649 760.413 Q97.9649 756.148 99.1108 752.392 Q100.225 748.605 102.485 745.294 Z" fill="#000000" fill-rule="nonzero" fill-opacity="1" /><path clip-path="url(#clip770)" d="M114.802 721.805 Q114.802 726.516 118.494 729.253 Q122.155 731.99 128.552 731.99 Q134.95 731.99 138.642 729.285 Q142.302 726.547 142.302 721.805 Q142.302 717.126 138.61 714.389 Q134.918 711.652 128.552 711.652 Q122.218 711.652 118.526 714.389 Q114.802 717.126 114.802 721.805 M109.837 721.805 Q109.837 714.166 114.802 709.806 Q119.767 705.445 128.552 705.445 Q137.305 705.445 142.302 709.806 Q147.267 714.166 147.267 721.805 Q147.267 729.476 142.302 733.836 Q137.305 738.165 128.552 738.165 Q119.767 738.165 114.802 733.836 Q109.837 729.476 109.837 721.805 Z" fill="#000000" fill-rule="nonzero" fill-opacity="1" /><path clip-path="url(#clip770)" d="M111.747 673.012 L117.285 673.012 Q116.012 675.495 115.375 678.168 Q114.739 680.842 114.739 683.706 Q114.739 688.067 116.075 690.263 Q117.412 692.427 120.086 692.427 Q122.123 692.427 123.3 690.868 Q124.446 689.308 125.497 684.597 L125.942 682.592 Q127.279 676.354 129.73 673.744 Q132.149 671.102 136.509 671.102 Q141.475 671.102 144.371 675.049 Q147.267 678.964 147.267 685.839 Q147.267 688.703 146.694 691.823 Q146.153 694.91 145.039 698.347 L138.992 698.347 Q140.679 695.101 141.538 691.95 Q142.366 688.799 142.366 685.711 Q142.366 681.574 140.965 679.346 Q139.533 677.118 136.955 677.118 Q134.568 677.118 133.295 678.741 Q132.021 680.332 130.844 685.775 L130.366 687.812 Q129.221 693.255 126.865 695.674 Q124.478 698.093 120.34 698.093 Q115.311 698.093 112.574 694.528 Q109.837 690.963 109.837 684.407 Q109.837 681.16 110.314 678.295 Q110.792 675.431 111.747 673.012 Z" fill="#000000" fill-rule="nonzero" fill-opacity="1" /><path clip-path="url(#clip770)" d="M100.575 655.984 L110.696 655.984 L110.696 643.921 L115.248 643.921 L115.248 655.984 L134.6 655.984 Q138.96 655.984 140.201 654.806 Q141.443 653.596 141.443 649.936 L141.443 643.921 L146.344 643.921 L146.344 649.936 Q146.344 656.716 143.83 659.294 Q141.284 661.872 134.6 661.872 L115.248 661.872 L115.248 666.169 L110.696 666.169 L110.696 661.872 L100.575 661.872 L100.575 655.984 Z" fill="#000000" fill-rule="nonzero" fill-opacity="1" /><path clip-path="url(#clip770)" d="M96.8828 601.43 Q104.203 605.695 111.365 607.763 Q118.526 609.832 125.879 609.832 Q133.231 609.832 140.456 607.763 Q147.649 605.663 154.938 601.43 L154.938 606.522 Q147.458 611.296 140.233 613.684 Q133.008 616.039 125.879 616.039 Q118.781 616.039 111.588 613.684 Q104.394 611.328 96.8828 606.522 L96.8828 601.43 Z" fill="#000000" fill-rule="nonzero" fill-opacity="1" /><path clip-path="url(#clip770)" d="M98.8243 590.544 L98.8243 584.083 L127.693 584.083 Q135.332 584.083 138.705 581.314 Q142.047 578.545 142.047 572.338 Q142.047 566.164 138.705 563.394 Q135.332 560.625 127.693 560.625 L98.8243 560.625 L98.8243 554.164 L128.489 554.164 Q137.782 554.164 142.525 558.779 Q147.267 563.363 147.267 572.338 Q147.267 581.346 142.525 585.961 Q137.782 590.544 128.489 590.544 L98.8243 590.544 Z" fill="#000000" fill-rule="nonzero" fill-opacity="1" /><path clip-path="url(#clip770)" d="M100.384 513.615 L106.654 513.615 Q104.904 517.275 104.044 520.521 Q103.185 523.768 103.185 526.792 Q103.185 532.043 105.222 534.908 Q107.259 537.741 111.015 537.741 Q114.166 537.741 115.789 535.863 Q117.38 533.953 118.367 528.669 L119.163 524.786 Q120.531 517.593 124.001 514.188 Q127.438 510.75 133.231 510.75 Q140.138 510.75 143.703 515.397 Q147.267 520.012 147.267 528.956 Q147.267 532.33 146.503 536.149 Q145.74 539.937 144.244 544.011 L137.623 544.011 Q139.819 540.096 140.933 536.34 Q142.047 532.584 142.047 528.956 Q142.047 523.45 139.883 520.458 Q137.719 517.466 133.708 517.466 Q130.207 517.466 128.234 519.63 Q126.261 521.763 125.274 526.664 L124.51 530.579 Q123.078 537.772 120.022 540.987 Q116.967 544.202 111.524 544.202 Q105.222 544.202 101.593 539.778 Q97.9649 535.322 97.9649 527.524 Q97.9649 524.182 98.5697 520.712 Q99.1744 517.243 100.384 513.615 Z" fill="#000000" fill-rule="nonzero" fill-opacity="1" /><path clip-path="url(#clip770)" d="M104.108 494.295 L141.061 494.295 L141.061 486.529 Q141.061 476.693 136.605 472.142 Q132.149 467.559 122.537 467.559 Q112.988 467.559 108.564 472.142 Q104.108 476.693 104.108 486.529 L104.108 494.295 M98.8243 500.724 L98.8243 487.515 Q98.8243 473.702 104.585 467.24 Q110.314 460.779 122.537 460.779 Q134.822 460.779 140.583 467.272 Q146.344 473.765 146.344 487.515 L146.344 500.724 L98.8243 500.724 Z" fill="#000000" fill-rule="nonzero" fill-opacity="1" /><path clip-path="url(#clip770)" d="M96.8828 451.708 L96.8828 446.616 Q104.394 441.841 111.588 439.486 Q118.781 437.099 125.879 437.099 Q133.008 437.099 140.233 439.486 Q147.458 441.841 154.938 446.616 L154.938 451.708 Q147.649 447.475 140.456 445.406 Q133.231 443.305 125.879 443.305 Q118.526 443.305 111.365 445.406 Q104.203 447.475 96.8828 451.708 Z" fill="#000000" fill-rule="nonzero" fill-opacity="1" /><polyline clip-path="url(#clip772)" style="stroke:#009af9; stroke-linecap:round; stroke-linejoin:round; stroke-width:4; stroke-opacity:1; fill:none" points="487.062,1067.31 499.19,259.997 511.317,259.713 523.445,259.428 535.572,259.143 547.7,258.859 559.827,258.574 571.955,258.289 584.082,258.004 596.21,257.72 608.337,257.435 620.464,257.15 632.592,256.866 644.719,256.581 656.847,256.296 668.974,256.012 681.102,255.727 693.229,255.442 705.357,255.158 717.484,254.873 729.612,254.588 741.739,254.303 753.866,254.019 765.994,253.734 778.121,253.449 790.249,253.165 802.376,252.88 814.504,252.595 826.631,252.311 838.759,252.026 850.886,251.741 863.013,251.456 875.141,251.172 887.268,250.887 899.396,250.602 911.523,250.318 923.651,250.033 935.778,249.748 947.906,249.464 960.033,249.179 972.161,248.894 984.288,248.61 996.415,248.325 1008.54,248.04 1020.67,247.755 1032.8,247.471 1044.93,247.186 1057.05,246.901 1069.18,246.617 1081.31,246.332 1093.44,246.047 1105.56,245.763 1117.69,245.478 1129.82,245.193 1141.94,244.909 1154.07,244.624 1166.2,244.339 1178.33,244.054 1190.45,243.77 1202.58,243.485 1214.71,243.2 1226.84,242.488 1238.96,241.775 1251.09,241.062 1263.22,240.35 1275.35,239.637 1287.47,238.924 1299.6,238.212 1311.73,237.499 1323.86,236.786 1335.98,236.073 1348.11,235.361 1360.24,234.648 1372.37,233.935 1384.49,233.223 1396.62,232.51 1408.75,231.797 1420.88,231.085 1433,230.372 1445.13,229.659 1457.26,228.947 1469.39,228.234 1481.51,227.521 1493.64,226.809 1505.77,226.096 1517.9,225.383 1530.02,224.67 1542.15,223.958 1554.28,223.245 1566.41,222.532 1578.53,221.82 1590.66,221.107 1602.79,220.394 1614.92,219.682 1627.04,218.969 1639.17,218.256 1651.3,217.544 1663.43,216.831 1675.55,216.118 1687.68,215.405 1699.81,214.693 1711.94,213.98 1724.06,213.267 1736.19,209.942 1748.32,206.616 1760.45,203.29 1772.57,199.964 1784.7,196.638 1796.83,193.312 1808.95,189.986 1821.08,186.66 1833.21,183.335 1845.34,180.009 1857.46,176.683 1869.59,173.357 1881.72,170.031 1893.85,166.705 1905.97,163.379 1918.1,160.053 1930.23,156.727 1942.36,153.402 "/>
<path clip-path="url(#clip770)" d="M1550.24 1062.44 L1934.6 1062.44 L1934.6 958.759 L1550.24 958.759  Z" fill="#ffffff" fill-rule="evenodd" fill-opacity="1"/>
<polyline clip-path="url(#clip770)" style="stroke:#000000; stroke-linecap:round; stroke-linejoin:round; stroke-width:4; stroke-opacity:1; fill:none" points="1550.24,1062.44 1934.6,1062.44 1934.6,958.759 1550.24,958.759 1550.24,1062.44 "/>
<polyline clip-path="url(#clip770)" style="stroke:#009af9; stroke-linecap:round; stroke-linejoin:round; stroke-width:4; stroke-opacity:1; fill:none" points="1567.38,1010.6 1670.22,1010.6 "/>
<path clip-path="url(#clip770)" d="M1688.04 1023.94 L1695.67 1023.94 L1695.67 997.578 L1687.36 999.245 L1687.36 994.986 L1695.63 993.319 L1700.3 993.319 L1700.3 1023.94 L1707.94 1023.94 L1707.94 1027.88 L1688.04 1027.88 L1688.04 1023.94 Z" fill="#000000" fill-rule="nonzero" fill-opacity="1" /><path clip-path="url(#clip770)" d="M1727.39 996.398 Q1723.78 996.398 1721.95 999.963 Q1720.14 1003.5 1720.14 1010.63 Q1720.14 1017.74 1721.95 1021.31 Q1723.78 1024.85 1727.39 1024.85 Q1731.02 1024.85 1732.83 1021.31 Q1734.66 1017.74 1734.66 1010.63 Q1734.66 1003.5 1732.83 999.963 Q1731.02 996.398 1727.39 996.398 M1727.39 992.694 Q1733.2 992.694 1736.25 997.301 Q1739.33 1001.88 1739.33 1010.63 Q1739.33 1019.36 1736.25 1023.97 Q1733.2 1028.55 1727.39 1028.55 Q1721.58 1028.55 1718.5 1023.97 Q1715.44 1019.36 1715.44 1010.63 Q1715.44 1001.88 1718.5 997.301 Q1721.58 992.694 1727.39 992.694 Z" fill="#000000" fill-rule="nonzero" fill-opacity="1" /><path clip-path="url(#clip770)" d="M1757.55 996.398 Q1753.94 996.398 1752.11 999.963 Q1750.3 1003.5 1750.3 1010.63 Q1750.3 1017.74 1752.11 1021.31 Q1753.94 1024.85 1757.55 1024.85 Q1761.18 1024.85 1762.99 1021.31 Q1764.82 1017.74 1764.82 1010.63 Q1764.82 1003.5 1762.99 999.963 Q1761.18 996.398 1757.55 996.398 M1757.55 992.694 Q1763.36 992.694 1766.41 997.301 Q1769.49 1001.88 1769.49 1010.63 Q1769.49 1019.36 1766.41 1023.97 Q1763.36 1028.55 1757.55 1028.55 Q1751.74 1028.55 1748.66 1023.97 Q1745.6 1019.36 1745.6 1010.63 Q1745.6 1001.88 1748.66 997.301 Q1751.74 992.694 1757.55 992.694 Z" fill="#000000" fill-rule="nonzero" fill-opacity="1" /><path clip-path="url(#clip770)" d="M1787.71 996.398 Q1784.1 996.398 1782.27 999.963 Q1780.47 1003.5 1780.47 1010.63 Q1780.47 1017.74 1782.27 1021.31 Q1784.1 1024.85 1787.71 1024.85 Q1791.34 1024.85 1793.15 1021.31 Q1794.98 1017.74 1794.98 1010.63 Q1794.98 1003.5 1793.15 999.963 Q1791.34 996.398 1787.71 996.398 M1787.71 992.694 Q1793.52 992.694 1796.58 997.301 Q1799.65 1001.88 1799.65 1010.63 Q1799.65 1019.36 1796.58 1023.97 Q1793.52 1028.55 1787.71 1028.55 Q1781.9 1028.55 1778.82 1023.97 Q1775.77 1019.36 1775.77 1010.63 Q1775.77 1001.88 1778.82 997.301 Q1781.9 992.694 1787.71 992.694 Z" fill="#000000" fill-rule="nonzero" fill-opacity="1" /><path clip-path="url(#clip770)" d="M1835.46 991.861 L1835.46 995.402 L1831.39 995.402 Q1829.1 995.402 1828.2 996.328 Q1827.32 997.254 1827.32 999.662 L1827.32 1001.95 L1834.33 1001.95 L1834.33 1005.26 L1827.32 1005.26 L1827.32 1027.88 L1823.03 1027.88 L1823.03 1005.26 L1818.96 1005.26 L1818.96 1001.95 L1823.03 1001.95 L1823.03 1000.15 Q1823.03 995.819 1825.05 993.851 Q1827.06 991.861 1831.44 991.861 L1835.46 991.861 Z" fill="#000000" fill-rule="nonzero" fill-opacity="1" /><path clip-path="url(#clip770)" d="M1842.41 994.592 L1842.41 1001.95 L1851.18 1001.95 L1851.18 1005.26 L1842.41 1005.26 L1842.41 1019.34 Q1842.41 1022.51 1843.27 1023.41 Q1844.15 1024.31 1846.81 1024.31 L1851.18 1024.31 L1851.18 1027.88 L1846.81 1027.88 Q1841.88 1027.88 1840 1026.05 Q1838.13 1024.2 1838.13 1019.34 L1838.13 1005.26 L1835 1005.26 L1835 1001.95 L1838.13 1001.95 L1838.13 994.592 L1842.41 994.592 Z" fill="#000000" fill-rule="nonzero" fill-opacity="1" /><path clip-path="url(#clip770)" d="M1874.45 993.319 L1887.02 1006.21 L1882.36 1006.21 L1872.18 997.069 L1861.99 1006.21 L1857.34 1006.21 L1869.91 993.319 L1874.45 993.319 Z" fill="#000000" fill-rule="nonzero" fill-opacity="1" /><path clip-path="url(#clip770)" d="M1901.14 1023.94 L1917.46 1023.94 L1917.46 1027.88 L1895.51 1027.88 L1895.51 1023.94 Q1898.17 1021.19 1902.76 1016.56 Q1907.36 1011.91 1908.54 1010.56 Q1910.79 1008.04 1911.67 1006.31 Q1912.57 1004.55 1912.57 1002.86 Q1912.57 1000.1 1910.63 998.365 Q1908.71 996.629 1905.6 996.629 Q1903.4 996.629 1900.95 997.393 Q1898.52 998.157 1895.74 999.708 L1895.74 994.986 Q1898.57 993.851 1901.02 993.273 Q1903.47 992.694 1905.51 992.694 Q1910.88 992.694 1914.08 995.379 Q1917.27 998.064 1917.27 1002.56 Q1917.27 1004.68 1916.46 1006.61 Q1915.67 1008.5 1913.57 1011.1 Q1912.99 1011.77 1909.89 1014.99 Q1906.78 1018.18 1901.14 1023.94 Z" fill="#000000" fill-rule="nonzero" fill-opacity="1" /></svg>
